<?xml version="1.0" standalone="no"?><!DOCTYPE svg PUBLIC "-//W3C//DTD SVG 1.1//EN"
        "http://www.w3.org/Graphics/SVG/1.1/DTD/svg11.dtd">
<svg t="1507445090970" class="icon" style="" viewBox="0 0 1024 1024" version="1.1" xmlns="http://www.w3.org/2000/svg"
           p-id="12773" xmlns:xlink="http://www.w3.org/1999/xlink" width="200" height="200">
<defs>
    <style type="text/css"></style>
</defs>
<path d="M128.139425 530.039865l352.442004-350.340133c17.445324-17.49035 45.760207-18.518772 63.250556-1.028423l352.442004 351.368556c0 0 14.359033 11.540847 31.580253 11.540847 17.266245 0 31.670304-11.540847 31.670304-11.540847L566.198389 138.770554c-29.836539-29.791513-78.190827-30.819936-107.98234-1.028423L64.888869 530.039865c0 0 11.808954 11.540847 29.254278 11.540847C111.633496 541.580712 128.139425 530.039865 128.139425 530.039865"
      p-id="12774" fill="#1296db"></path>
<path d="M285.657972 625.050776l0 231.398184c0 5.323239-1.073448 9.259898-3.176342 11.943007-2.146896 2.639107-6.217608 3.980661-12.346189 3.980661-6.083555 0-10.199293-1.431605-12.346189-4.204765-2.102894-2.77316-3.131317-6.664793-3.131317-11.719926L254.657934 625.050776l-64.055898 0c-4.742001 0-8.498558-1.028423-11.316743-3.176342-2.77316-2.102894-4.15974-5.815449-4.15974-11.138688 0-5.010107 1.476631-8.677637 4.338818-10.914584 2.952238-2.28095 6.664793-3.399423 11.138688-3.399423l159.066809 0c4.472871 0 8.185426 1.252527 11.138688 3.802606 2.907213 2.505054 4.338818 6.128581 4.338818 10.914584 0 5.323239-1.654686 8.946766-4.920056 10.914584-3.355421 2.012843-6.843872 2.997264-10.556427 2.997264L285.657972 625.050776z"
      p-id="12775" fill="#1296db"></path>
<path d="M512.265036 588.079746c20.129456 0 37.708833 3.846608 52.694129 11.540847 14.94027 7.694239 27.420513 18.071587 37.350676 31.178093 9.930163 13.151531 17.445324 28.449959 22.455431 45.939285 5.055133 17.49035 7.559163 35.920094 7.559163 55.244208 0 19.637246-2.460028 38.112016-7.336082 55.467289-4.920056 17.400299-12.346189 32.698726-22.276353 45.939285-9.930163 13.240559-22.410406 23.707958-37.350676 31.402197-14.985296 7.694239-32.698726 11.540847-53.096289 11.540847-19.86135 0-37.350676-3.846608-52.470025-11.540847-15.119349-7.694239-27.644617-18.071587-37.57478-31.223119-9.930163-13.106506-17.445324-28.404933-22.500457-45.895283-5.010107-17.49035-7.559163-36.054147-7.559163-55.691393 0-19.324114 2.416026-37.753859 7.202029-55.244208 4.786003-17.49035 12.122085-32.788777 22.053272-45.939285 9.930163-13.106506 22.455431-23.483854 37.57478-31.178093C474.063993 591.926354 491.822448 588.079746 512.265036 588.079746M512.265036 847.702762c14.851243 0 27.823696-2.77316 38.96136-8.364505 11.138688-5.54632 20.397562-13.374612 27.822672-23.439852 7.42511-10.064216 12.972453-22.1423 16.685008-36.1882s5.591345-29.567409 5.591345-46.521546c0-15.387455-1.744737-30.05962-5.189186-44.10552-3.444449-14.090926-8.812713-26.526143-16.10377-37.395702-7.291057-10.869558-16.550954-19.548218-27.823696-26.033933-11.272741-6.485715-24.602328-9.751085-39.945781-9.751085-15.387455 0-28.718065 3.26537-39.989783 9.751085-11.272741 6.485715-20.531616 15.119349-27.823696 25.854854-7.291057 10.735505-12.614296 23.036669-16.058744 36.948517-3.489474 13.911848-5.189186 28.449959-5.189186 43.524283 0 14.851243 1.699712 29.16525 5.189186 42.943045 3.444449 13.821797 8.722662 26.122961 15.879666 36.993542 7.157004 10.869558 16.371876 19.548218 27.644617 26.033933C483.189837 844.437391 496.608451 847.702762 512.265036 847.702762"
      p-id="12776" fill="#1296db"></path>
<path d="M678.072363 615.496166c0-7.649214 1.38658-12.748349 4.15974-15.298428 2.818185-2.505054 8.946766-3.75758 18.518772-3.75758l62.803371 0c29.925566 0 52.067866 6.664793 66.381873 20.084431 14.314007 13.374612 21.471011 34.488489 21.471011 63.384609 0 56.719816-29.254278 85.079724-87.852884 85.079724l-54.080709 0 0 91.431386c0 5.055133-1.163499 8.990768-3.578502 11.764951-2.371 2.77316-6.351662 4.15974-11.943007 4.15974-5.815449 0-9.930163-1.520633-12.301164-4.562922-2.371-3.042289-3.578502-6.843872-3.578502-11.361769L678.072363 615.496166zM709.47456 737.971591l54.080709 0c20.397562 0 34.980699-4.65195 43.747363-13.911848 8.722662-9.3039 13.106506-23.842011 13.106506-43.747363 0-19.86135-4.920056-34.175357-14.71719-42.943045-9.79611-8.722662-23.842011-13.106506-42.137703-13.106506l-54.080709 0L709.473537 737.971591z"
      p-id="12777" fill="#1296db"></path>
</svg>